<svg width="494" height="495" viewBox="0 0 494 495" fill="none" xmlns="http://www.w3.org/2000/svg">
<path d="M435.002 421.509C424.899 431.975 415.338 438.724 407.785 444.056C319.001 506.738 213.944 488.467 191.615 484.004C158.645 477.415 94.9129 464.679 48.8366 411.363C-20.8716 330.702 -10.0173 203.62 44.055 119.731C53.9459 104.387 106.191 19.2198 212.379 5.5615C276.643 -2.70435 351.553 13.9662 405.802 58.687C519.673 152.56 511.567 342.197 435.002 421.509Z" fill="url(#paint0_linear_14_555)"/>
<path d="M94.1397 140.101C94.186 137.73 96.1788 135.821 98.6221 135.821H246.836C249.313 135.821 251.944 137.789 251.944 140.194V476.014C251.944 477.809 250.896 479.53 249.588 480.796C248.279 482.063 246.348 482.772 244.5 482.768L94.6633 482.371C92.7987 482.366 90.9751 481.634 89.6715 480.342C88.3679 479.048 87.6324 477.296 87.668 475.485L94.1397 140.101Z" fill="#BDD0FB"/>
<g opacity="0.52">
<path opacity="0.52" d="M179.258 159.618L227.742 159.456L227.724 153.567L179.294 153.715L179.258 159.618Z" fill="white"/>
<path opacity="0.52" d="M179.125 181.313L227.808 181.096L227.79 175.158L179.16 175.36L179.125 181.313Z" fill="white"/>
<path opacity="0.52" d="M178.991 203.184L227.876 202.915L227.856 196.928L179.027 197.182L178.991 203.184Z" fill="white"/>
<path opacity="0.52" d="M178.855 225.238L227.943 224.916L227.924 218.879L178.893 219.187L178.855 225.238Z" fill="white"/>
<path opacity="0.52" d="M178.718 247.477L228.011 247.098L227.991 241.011L178.756 241.374L178.718 247.477Z" fill="white"/>
<path opacity="0.52" d="M178.442 292.513L228.148 292.02L228.13 285.83L178.481 286.307L178.442 292.513Z" fill="white"/>
<path opacity="0.52" d="M178.02 361.504L228.36 360.833L228.34 354.486L178.059 355.14L178.02 361.504Z" fill="white"/>
<path opacity="0.52" d="M178.581 269.9L228.079 269.464L228.061 263.327L178.619 263.747L178.581 269.9Z" fill="white"/>
<path opacity="0.52" d="M178.304 315.315L228.218 314.765L228.2 308.523L178.341 309.059L178.304 315.315Z" fill="white"/>
<path opacity="0.52" d="M178.163 338.313L228.289 337.702L228.269 331.407L178.2 332.002L178.163 338.313Z" fill="white"/>
<path opacity="0.52" d="M177.876 384.894L228.431 384.162L228.412 377.76L177.917 378.476L177.876 384.894Z" fill="white"/>
<path opacity="0.52" d="M177.732 408.484L228.504 407.69L228.483 401.235L177.773 402.011L177.732 408.484Z" fill="white"/>
<path opacity="0.52" d="M177.586 432.28L228.575 431.423L228.556 424.909L177.627 425.749L177.586 432.28Z" fill="white"/>
<path opacity="0.52" d="M177.44 456.279L228.65 455.359L228.629 448.79L177.481 449.692L177.44 456.279Z" fill="white"/>
<path opacity="0.52" d="M115.69 159.832L164.479 159.668L164.532 153.761L115.799 153.911L115.69 159.832Z" fill="white"/>
<path opacity="0.52" d="M115.295 181.594L164.284 181.377L164.338 175.42L115.403 175.623L115.295 181.594Z" fill="white"/>
<path opacity="0.52" d="M114.896 203.538L164.09 203.267L164.144 197.261L115.006 197.517L114.896 203.538Z" fill="white"/>
<path opacity="0.52" d="M114.493 225.663L163.893 225.338L163.946 219.281L114.604 219.593L114.493 225.663Z" fill="white"/>
<path opacity="0.52" d="M114.087 247.974L163.693 247.591L163.749 241.485L114.2 241.851L114.087 247.974Z" fill="white"/>
<path opacity="0.52" d="M113.266 293.159L163.291 292.663L163.348 286.453L113.38 286.934L113.266 293.159Z" fill="white"/>
<path opacity="0.52" d="M112.007 362.382L162.675 361.707L162.732 355.339L112.123 355.996L112.007 362.382Z" fill="white"/>
<path opacity="0.52" d="M113.68 270.471L163.494 270.033L163.549 263.875L113.792 264.297L113.68 270.471Z" fill="white"/>
<path opacity="0.52" d="M112.85 316.038L163.088 315.484L163.143 309.221L112.964 309.76L112.85 316.038Z" fill="white"/>
<path opacity="0.52" d="M112.431 339.112L162.883 338.498L162.938 332.183L112.545 332.779L112.431 339.112Z" fill="white"/>
<path opacity="0.52" d="M111.58 385.853L162.466 385.116L162.523 378.693L111.698 379.412L111.58 385.853Z" fill="white"/>
<path opacity="0.52" d="M111.151 409.526L162.254 408.726L162.313 402.248L111.268 403.029L111.151 409.526Z" fill="white"/>
<path opacity="0.52" d="M110.716 433.403L162.042 432.541L162.101 426.006L110.835 426.851L110.716 433.403Z" fill="white"/>
<path opacity="0.52" d="M110.278 457.488L161.827 456.561L161.887 449.968L110.397 450.878L110.278 457.488Z" fill="white"/>
</g>
<path d="M9.08761 232.731C9.15172 229.988 11.9708 227.73 15.4239 227.73H145.963C149.462 227.73 152.899 230.105 152.899 232.886V481.398C152.899 482.735 151.929 484.018 150.737 484.962C149.544 485.905 147.779 486.434 146.095 486.43L9.60762 486.135C7.90868 486.131 6.24714 485.587 5.0593 484.622C3.87147 483.657 3.20186 482.325 3.23392 480.976L9.08761 232.731Z" fill="#BDD0FB"/>
<path d="M105.224 257.014L142.412 256.975L142.707 241.832H105.482L105.224 257.014Z" fill="url(#paint1_linear_14_555)"/>
<path d="M63.5409 257.007L100.691 256.966L100.946 241.832H63.7581L63.5409 257.007Z" fill="url(#paint2_linear_14_555)"/>
<path d="M21.899 256.998L59.0122 256.959L59.2259 241.832H22.0771L21.899 256.998Z" fill="url(#paint3_linear_14_555)"/>
<path d="M104.759 284.193L141.883 284.213L142.177 269.17L105.017 269.157L104.759 284.193Z" fill="url(#paint4_linear_14_555)"/>
<path d="M63.1475 284.172L100.234 284.192L100.489 269.156L63.3665 269.143L63.1475 284.172Z" fill="url(#paint5_linear_14_555)"/>
<path d="M21.5786 284.153L58.6277 284.17L58.8414 269.141L21.7567 269.131L21.5786 284.153Z" fill="url(#paint6_linear_14_555)"/>
<path d="M104.296 311.188L141.354 311.218L141.648 296.227L104.552 296.203L104.296 311.188Z" fill="url(#paint7_linear_14_555)"/>
<path d="M62.7572 311.153L99.7778 311.185L100.031 296.2L62.9745 296.177L62.7572 311.153Z" fill="url(#paint8_linear_14_555)"/>
<path d="M21.2598 311.119L58.2447 311.149L58.4566 296.173L21.4379 296.148L21.2598 311.119Z" fill="url(#paint9_linear_14_555)"/>
<path d="M103.835 338.088L140.829 338.131L141.121 323.191L104.091 323.155L103.835 338.088Z" fill="url(#paint10_linear_14_555)"/>
<path d="M62.3673 338.04L99.3255 338.083L99.5766 323.15L62.5845 323.114L62.3673 338.04Z" fill="url(#paint11_linear_14_555)"/>
<path d="M20.9427 337.992L57.8635 338.035L58.0754 323.111L21.119 323.073L20.9427 337.992Z" fill="url(#paint12_linear_14_555)"/>
<path d="M103.375 364.896L140.305 364.949L140.595 350.062L103.63 350.014L103.375 364.896Z" fill="url(#paint13_linear_14_555)"/>
<path d="M61.979 364.834L98.8732 364.889L99.1243 350.007L62.1945 349.959L61.979 364.834Z" fill="url(#paint14_linear_14_555)"/>
<path d="M20.6258 364.773L57.4825 364.826L57.6945 349.954L20.8021 349.906L20.6258 364.773Z" fill="url(#paint15_linear_14_555)"/>
<path d="M102.916 391.609L139.782 391.677L140.072 376.84L103.171 376.779L102.916 391.609Z" fill="url(#paint16_linear_14_555)"/>
<path d="M61.593 391.536L98.423 391.602L98.6723 376.772L61.8084 376.711L61.593 391.536Z" fill="url(#paint17_linear_14_555)"/>
<path d="M20.3107 391.461L57.1033 391.527L57.3152 376.704L20.487 376.646L20.3107 391.461Z" fill="url(#paint18_linear_14_555)"/>
<path d="M102.46 418.233L139.261 418.309L139.55 403.524L102.713 403.453L102.46 418.233Z" fill="url(#paint19_linear_14_555)"/>
<path d="M61.2079 418.144L97.9738 418.222L98.2231 403.444L61.4216 403.373L61.2079 418.144Z" fill="url(#paint20_linear_14_555)"/>
<path d="M19.9971 418.057L56.7256 418.135L56.9357 403.364L20.1716 403.293L19.9971 418.057Z" fill="url(#paint21_linear_14_555)"/>
<path d="M102.004 444.763L138.743 444.854L139.032 430.118L102.257 430.035L102.004 444.763Z" fill="url(#paint22_linear_14_555)"/>
<path d="M60.8236 444.663L97.5254 444.752L97.7747 430.026L61.0373 429.942L60.8236 444.663Z" fill="url(#paint23_linear_14_555)"/>
<path d="M19.6837 444.562L56.3499 444.652L56.5583 429.931L19.8583 429.848L19.6837 444.562Z" fill="url(#paint24_linear_14_555)"/>
<path d="M101.55 471.204L138.227 471.305L138.514 456.621L101.803 456.525L101.55 471.204Z" fill="url(#paint25_linear_14_555)"/>
<path d="M60.4405 471.09L97.0799 471.191L97.3275 456.514L60.6524 456.418L60.4405 471.09Z" fill="url(#paint26_linear_14_555)"/>
<path d="M19.3721 470.976L55.9742 471.077L56.1825 456.408L19.5449 456.313L19.3721 470.976Z" fill="url(#paint27_linear_14_555)"/>
<path d="M349.836 238.665C349.9 235.921 352.719 233.664 356.172 233.664H486.711C490.211 233.664 493.648 236.039 493.648 238.82V487.331C493.648 488.668 492.677 489.952 491.486 490.896C490.293 491.839 488.528 492.368 486.843 492.364L350.356 492.069C348.657 492.065 346.996 491.52 345.808 490.556C344.62 489.591 343.95 488.259 343.982 486.909L349.836 238.665Z" fill="#BDD0FB"/>
<g opacity="0.5">
<g opacity="0.5">
<path opacity="0.5" d="M445.971 262.948L483.159 262.909L483.454 247.766H446.231L445.971 262.948Z" fill="white"/>
<path opacity="0.5" d="M404.288 262.941L441.438 262.902L441.693 247.766H404.507L404.288 262.941Z" fill="white"/>
<path opacity="0.5" d="M362.646 262.934L399.759 262.894L399.975 247.766H362.824L362.646 262.934Z" fill="white"/>
</g>
<g opacity="0.5">
<path opacity="0.5" d="M445.506 290.129L482.63 290.147L482.924 275.104L445.764 275.091L445.506 290.129Z" fill="white"/>
<path opacity="0.5" d="M403.896 290.108L440.983 290.126L441.236 275.091L404.114 275.079L403.896 290.108Z" fill="white"/>
<path opacity="0.5" d="M362.327 290.086L399.377 290.106L399.588 275.077L362.504 275.064L362.327 290.086Z" fill="white"/>
</g>
<g opacity="0.5">
<path opacity="0.5" d="M445.043 317.122L482.102 317.154L482.394 302.162L445.301 302.137L445.043 317.122Z" fill="white"/>
<path opacity="0.5" d="M403.504 317.088L440.526 317.118L440.779 302.135L403.721 302.11L403.504 317.088Z" fill="white"/>
<path opacity="0.5" d="M362.008 317.052L398.993 317.084L399.205 302.107L362.185 302.084L362.008 317.052Z" fill="white"/>
</g>
<g opacity="0.5">
<path opacity="0.5" d="M444.582 344.022L481.575 344.065L481.868 329.126L444.838 329.089L444.582 344.022Z" fill="white"/>
<path opacity="0.5" d="M403.116 343.974L440.073 344.017L440.325 329.085L403.332 329.048L403.116 343.974Z" fill="white"/>
<path opacity="0.5" d="M361.692 343.926L398.611 343.969L398.823 329.044L361.868 329.009L361.692 343.926Z" fill="white"/>
</g>
<g opacity="0.5">
<path opacity="0.5" d="M444.122 370.83L481.052 370.885L481.342 355.996L444.377 355.948L444.122 370.83Z" fill="white"/>
<path opacity="0.5" d="M402.728 370.769L439.62 370.822L439.871 355.943L402.943 355.895L402.728 370.769Z" fill="white"/>
<path opacity="0.5" d="M361.374 370.707L398.231 370.762L398.441 355.888L361.551 355.84L361.374 370.707Z" fill="white"/>
</g>
<g opacity="0.5">
<path opacity="0.5" d="M443.664 397.544L480.53 397.61L480.82 382.773L443.917 382.715L443.664 397.544Z" fill="white"/>
<path opacity="0.5" d="M402.341 397.47L439.17 397.535L439.421 382.707L402.555 382.647L402.341 397.47Z" fill="white"/>
<path opacity="0.5" d="M361.059 397.395L397.852 397.461L398.062 382.64L361.234 382.579L361.059 397.395Z" fill="white"/>
</g>
<g opacity="0.5">
<path opacity="0.5" d="M443.207 424.167L480.01 424.245L480.299 409.46L443.46 409.387L443.207 424.167Z" fill="white"/>
<path opacity="0.5" d="M401.955 424.079L438.721 424.158L438.97 409.38L402.169 409.307L401.955 424.079Z" fill="white"/>
<path opacity="0.5" d="M360.744 423.992L397.474 424.069L397.684 409.298L360.919 409.227L360.744 423.992Z" fill="white"/>
</g>
<g opacity="0.5">
<path opacity="0.5" d="M442.753 450.699L479.49 450.788L479.779 436.054L443.004 435.97L442.753 450.699Z" fill="white"/>
<path opacity="0.5" d="M401.572 450.597L438.274 450.688L438.522 435.959L401.784 435.876L401.572 450.597Z" fill="white"/>
<path opacity="0.5" d="M360.432 450.497L397.097 450.586L397.307 435.867L360.605 435.783L360.432 450.497Z" fill="white"/>
</g>
<g opacity="0.5">
<path opacity="0.5" d="M442.298 477.137L478.973 477.239L479.26 462.555L442.549 462.461L442.298 477.137Z" fill="white"/>
<path opacity="0.5" d="M401.189 477.024L437.829 477.125L438.076 462.448L401.401 462.354L401.189 477.024Z" fill="white"/>
<path opacity="0.5" d="M360.119 476.911L396.723 477.013L396.931 462.341L360.294 462.247L360.119 476.911Z" fill="white"/>
</g>
</g>
<path d="M220.063 306.267C209.41 272.828 188.796 246.179 164.381 230.514C142.554 216.509 126.828 194.699 121.006 169.506C120.393 166.859 119.667 164.202 118.821 161.548C106.008 121.333 70.8641 96.6138 40.3259 106.338C9.78766 116.058 -4.58212 156.542 8.23118 196.758C10.8508 204.982 14.4054 212.555 18.6635 219.318C32.2515 240.901 37.5691 266.786 32.5702 291.824C28.102 314.198 29.3148 339.391 37.302 364.461C49.2142 401.851 73.5781 430.754 101.791 445.304C112.461 450.807 122.083 458.207 130.051 467.152C143.292 482.013 161.953 488.997 179.098 483.539C197.594 477.65 209.148 458.927 209.98 437.083C210.45 424.72 213.358 412.604 218.097 401.149C229.282 374.105 230.835 340.075 220.063 306.267Z" fill="#91B3FA"/>
<path opacity="0.57" d="M64.6507 145.712C77.1078 171.021 88.7386 196.709 100.099 222.519C102.941 228.971 105.68 235.467 108.438 241.955L112.575 251.686L116.63 261.452C119.309 267.973 122.078 274.457 124.682 281.01L132.496 300.665C137.538 313.835 142.692 326.961 147.486 340.224C149.892 346.852 152.429 353.432 154.7 360.11L161.606 380.106C170.543 406.859 178.809 433.85 185.685 461.207L184.504 461.517L178.576 441.245L177.105 436.176L175.508 431.144L172.293 421.085L169.098 411.023C168.039 407.667 166.856 404.35 165.74 401.012C163.464 394.35 161.243 387.673 158.924 381.027C149.477 354.501 139.675 328.103 129.328 301.909C124.053 288.853 118.892 275.751 113.526 262.73L109.528 252.955L105.448 243.211C102.733 236.713 100.017 230.217 97.2351 223.748C91.7821 210.76 86.2365 197.812 80.584 184.911C74.9993 171.979 69.2916 159.097 63.5448 146.238L64.6507 145.712Z" fill="white"/>
<path d="M309.188 239.802C304.209 203.283 287.752 171.984 265.406 151.354C245.43 132.914 233.14 107.504 231.66 80.3885C231.505 77.5382 231.231 74.6595 230.835 71.7594C224.848 27.8398 193.074 -4.09672 159.868 0.426984C126.662 4.95247 104.597 44.2255 110.586 88.1451C111.81 97.1267 114.114 105.604 117.288 113.37C127.415 138.157 128.252 165.895 118.611 190.887C109.995 213.221 106.725 239.5 110.458 266.879C116.025 307.713 135.944 342.024 162.399 362.186C172.405 369.813 180.991 379.211 187.596 389.905C198.573 407.676 216.546 418.283 235.188 415.744C255.299 413.004 270.561 395.73 275.337 373.286C278.039 360.584 283.209 348.578 290.145 337.588C306.52 311.642 314.223 276.724 309.188 239.802Z" fill="#7D97F4"/>
<path opacity="0.57" d="M177.867 45.5659C186.162 74.0006 193.537 102.681 200.612 131.436C202.384 138.625 204.04 145.84 205.72 153.051L208.238 163.866L210.665 174.702C212.256 181.934 213.946 189.142 215.452 196.392L219.977 218.138C222.809 232.674 225.763 247.185 228.326 261.773C229.617 269.065 231.049 276.33 232.192 283.649L235.722 305.584C240.131 334.875 243.805 364.292 245.985 393.836L244.712 393.943L242.24 371.899L241.634 366.389L240.89 360.893L239.382 349.907L237.895 338.919C237.407 335.257 236.78 331.611 236.23 327.956C235.081 320.654 233.989 313.342 232.792 306.048C227.817 276.9 222.453 247.815 216.49 218.846C213.399 204.385 210.43 189.897 207.237 175.457L204.872 164.621L202.416 153.804C200.783 146.592 199.15 139.378 197.444 132.182C194.155 117.762 190.764 103.363 187.254 88.9924C183.821 74.6041 180.25 60.2444 176.635 45.9024L177.867 45.5659Z" fill="white"/>
<path d="M461.811 490.799H171.948C169.682 490.799 167.846 488.964 167.846 486.699V95.1256C167.846 92.8611 169.682 91.0256 171.948 91.0256H461.811C464.077 91.0256 465.913 92.8611 465.913 95.1256V486.697C465.913 488.962 464.077 490.799 461.811 490.799Z" fill="url(#paint28_linear_14_555)"/>
<path d="M415.171 438.138H217.953C210.476 438.138 204.416 432.08 204.416 424.607V164.617C204.416 157.144 210.476 151.085 217.953 151.085H415.171C422.647 151.085 428.707 157.144 428.707 164.617V424.607C428.707 432.08 422.647 438.138 415.171 438.138Z" fill="#7D97F4"/>
<path d="M407.708 418.167H225.594C223.352 418.167 221.534 416.349 221.534 414.108V178.758C221.534 176.517 223.352 174.699 225.594 174.699H407.708C409.951 174.699 411.769 176.517 411.769 178.758V414.11C411.769 416.351 409.951 418.167 407.708 418.167Z" fill="url(#paint29_linear_14_555)"/>
<path d="M316.336 130.592C321.261 130.592 325.253 126.602 325.253 121.679C325.253 116.756 321.261 112.765 316.336 112.765C311.411 112.765 307.419 116.756 307.419 121.679C307.419 126.602 311.411 130.592 316.336 130.592Z" fill="url(#paint30_linear_14_555)"/>
<path d="M373.944 265.581L259.226 267.487C250.494 267.633 243.39 274.42 243.39 282.647V354.869C243.39 363.096 250.494 369.48 259.226 369.129L373.944 364.524C382.184 364.193 388.84 357.481 388.84 349.53V279.73C388.84 271.78 382.184 265.444 373.944 265.581Z" fill="url(#paint31_linear_14_555)"/>
<path d="M379.749 252.519C376.275 252.57 373.454 249.889 373.454 246.532V230.725C373.454 214.868 360.037 202.005 343.427 202.053L306.055 202.162C289.018 202.212 275.056 215.453 275.056 231.681V247.856C275.056 251.294 272.098 254.123 268.443 254.178C264.782 254.233 261.81 251.483 261.81 248.034V231.809C261.81 208.647 281.771 189.803 306.055 189.803H343.427C367.023 189.803 386.027 208.106 386.027 230.602V246.361C386.027 249.711 383.218 252.467 379.749 252.519Z" fill="url(#paint32_linear_14_555)"/>
<path d="M335.144 305.607C335.144 297.582 328.134 291.279 319.615 291.858C312.08 292.371 305.849 298.402 305.443 305.603C305.127 311.192 308.199 316.023 312.869 318.466C314.856 319.506 315.843 321.695 315.456 323.862L312.181 342.236C311.765 344.576 313.645 346.632 316.121 346.543L324.539 346.242C327.002 346.153 328.87 343.972 328.457 341.67L325.184 323.465C324.793 321.293 325.923 319.137 327.914 317.946C332.245 315.361 335.144 310.77 335.144 305.607Z" fill="url(#paint33_linear_14_555)"/>
<path d="M104.742 491.497C104.743 491.34 104.733 491.18 104.694 491.02C102.314 481.592 90.5073 475.72 90.5073 475.72L85.8289 476.087C83.1381 484.397 83.4853 489.493 83.9163 491.764C83.9288 491.828 83.9484 491.889 83.9644 491.949C87.8235 492.293 95.7679 492.519 104.742 491.497Z" fill="url(#paint34_linear_14_555)"/>
<path d="M83.9643 491.947C84.1726 492.706 84.7318 493.295 85.4495 493.446C90.9399 494.6 99.6661 493.673 103.329 493.194C104.138 493.089 104.729 492.341 104.742 491.497C95.7678 492.519 87.8234 492.293 83.9643 491.947Z" fill="#91B3FA"/>
<path d="M83.9464 469.119L85.9285 478.656C86.0727 479.354 86.6105 479.877 87.2606 479.939C88.0566 480.014 89.191 480.059 90.3308 479.891C91.353 479.742 92.0653 478.702 91.8837 477.588L90.5071 469.121H83.9464V469.119Z" fill="url(#paint35_linear_14_555)"/>
<path d="M125.004 491.828C119.836 491.684 117.165 491.075 115.783 490.511C115.779 491.023 115.783 491.547 115.799 492.088C115.817 492.667 116.246 493.128 116.773 493.126L145.144 492.943C146.049 492.937 146.578 491.887 146.186 491.057C142.466 491.364 132.991 492.051 125.004 491.828Z" fill="#91B3FA"/>
<path d="M146.186 491.056C146.152 490.983 146.122 490.91 146.073 490.842C143.568 487.342 137.187 480.372 124.577 477.351L118.527 477.16C118.527 477.16 115.833 481.841 115.783 490.511C117.165 491.075 119.838 491.684 125.004 491.828C132.991 492.051 142.465 491.364 146.186 491.056Z" fill="url(#paint36_linear_14_555)"/>
<path d="M117.136 468.277C117.232 468.722 118.49 475.508 118.978 478.14C119.093 478.764 119.581 479.224 120.16 479.256C121.197 479.315 122.867 479.32 124.303 478.93C125.077 478.72 125.599 477.93 125.544 477.054L124.867 466.32L117.136 468.277Z" fill="url(#paint37_linear_14_555)"/>
<path d="M112.552 342.989C112.552 342.989 120.874 400.154 126.879 468.179C126.992 469.447 125.982 470.549 124.737 470.81C122.903 471.197 120.207 471.656 117.973 471.592C116.782 471.558 115.785 470.675 115.585 469.5C113.539 457.506 98.9413 393.136 95.1089 378.969C95.1089 378.969 90.7084 439.148 92.1152 470.369C92.1509 471.145 91.581 471.818 90.8099 471.907C89.6381 472.042 87.7646 472.145 85.38 471.893C84.4753 471.796 83.7452 471.113 83.6152 470.212C82.1584 460.061 73.7706 399.642 74.1268 356.115C74.1463 353.66 77.0082 333.495 77.0082 333.495L112.552 342.989Z" fill="url(#paint38_linear_14_555)"/>
<path d="M115.776 246.857L116.891 276.77C120.055 277.859 123.069 278.705 125.938 279.337C127.733 273.562 131.684 266.473 134.918 261.201C123.031 257.003 115.776 246.857 115.776 246.857Z" fill="url(#paint39_linear_14_555)"/>
<path d="M75.7544 346.285C74.8996 345.98 74.303 345.206 74.2087 344.303C73.1027 333.57 67.7441 267.023 101.572 239.648C101.572 239.648 103.511 234.574 119.457 247.046C135.403 259.519 126.865 272.592 123.047 290.622C118.427 312.442 110.323 330.276 113.909 343.703C114.157 344.629 113.669 345.603 112.77 345.934C100.382 350.499 88.0442 350.65 75.7544 346.285Z" fill="url(#paint40_linear_14_555)"/>
<path d="M114.766 219.708C114.755 220.655 101.248 239.834 101.248 239.834C101.248 239.834 103.671 244.607 115.247 248.483L125.238 227.947L114.766 219.708Z" fill="url(#paint41_linear_14_555)"/>
<path d="M108.075 285.335C107.992 285.335 107.904 285.31 107.829 285.26C97.0392 277.972 91.962 266.207 91.9121 266.09C91.8178 265.866 91.9228 265.609 92.1454 265.515C92.3698 265.421 92.6263 265.524 92.7207 265.746C92.7687 265.862 97.7516 277.393 108.321 284.532C108.522 284.667 108.574 284.94 108.439 285.141C108.355 285.267 108.216 285.335 108.075 285.335Z" fill="url(#paint42_linear_14_555)"/>
<path d="M124.148 269.031C124.003 269.031 123.863 268.96 123.779 268.83C123.747 268.78 120.451 263.649 114.171 252.41C112.241 248.955 109.703 246.765 106.629 245.905C101.54 244.483 96.6334 247.212 96.5853 247.239C96.3734 247.354 96.108 247.285 95.9869 247.075C95.8676 246.865 95.9406 246.596 96.1507 246.477C96.3627 246.357 101.408 243.534 106.857 245.06C110.168 245.984 112.887 248.312 114.937 251.981C121.2 263.192 124.484 268.305 124.516 268.355C124.648 268.558 124.589 268.83 124.385 268.96C124.312 269.008 124.23 269.031 124.148 269.031Z" fill="url(#paint43_linear_14_555)"/>
<path d="M125.401 208.717C125.401 208.717 130.208 219.755 130.53 225.548C130.853 231.341 132.101 235.099 125.401 236.267C118.702 237.433 113.057 234.097 109.999 228.327C109.999 228.327 105.208 219.434 106.282 215.793C107.358 212.151 125.401 208.717 125.401 208.717Z" fill="url(#paint44_linear_14_555)"/>
<path d="M112.289 224.177L112.67 224.009C113.156 223.796 113.363 223.217 113.119 222.747C112.173 220.922 110.332 216.741 112.711 215.765C115.778 214.508 127.925 212.032 130.546 207.722C133.064 203.581 130.833 198.235 127.48 196.714C127.255 196.613 126.99 196.693 126.876 196.912L126.596 197.441C126.406 197.802 125.87 197.747 125.756 197.355C125.647 196.978 125.145 196.905 124.937 197.238C124.132 198.527 121.955 200.617 116.139 201.69C107.872 203.216 102.409 206.559 102.271 212.27C102.263 212.633 101.876 212.835 101.566 212.646C100.955 212.274 99.9795 212.099 98.6741 213.196C96.4035 215.105 97.3331 220.054 102.309 224.127C102.546 224.321 102.544 224.69 102.288 224.855C101.385 225.443 100.04 226.838 103.525 228.701C107.13 230.627 109.821 230.468 110.857 230.297C111.115 230.255 111.281 230.005 111.224 229.751L110.118 224.732C110.056 224.447 110.271 224.179 110.563 224.179H112.289V224.177Z" fill="url(#paint45_linear_14_555)"/>
<path d="M112.496 225.236C112.496 225.236 110.661 218.186 107.5 220.162C104.337 222.139 109.14 228.062 111.684 228.325L112.496 225.236Z" fill="url(#paint46_linear_14_555)"/>
<path d="M174.731 244.607C174.731 244.607 172.322 240.338 172.475 238.262C172.628 236.188 171.335 233.142 172.712 233.366C174.088 233.593 174.371 233.407 174.745 235.896C175.119 238.389 179.461 249.261 174.731 244.607Z" fill="url(#paint47_linear_14_555)"/>
<path d="M175.185 237.819L175.13 246.348C158.823 263.95 145.623 264.986 134.92 261.203C131.684 266.475 127.732 273.562 125.939 279.339C169.488 288.936 179.742 248.914 179.742 248.914C185.641 246.471 186.83 245.042 186.576 243.441L175.185 237.819Z" fill="url(#paint48_linear_14_555)"/>
<path d="M187.726 229.357C186.333 228.793 183.61 223.602 183.089 225.309C182.567 227.016 183.309 229.357 183.089 230.084C182.868 230.81 179.473 239.165 180.15 241.02C180.64 242.359 183.336 242.161 183.748 244.353C183.885 245.079 184.465 245.601 185.14 245.602C185.815 245.602 186.396 245.083 186.533 244.354C186.588 244.062 189.117 229.922 187.726 229.357Z" fill="url(#paint49_linear_14_555)"/>
<path d="M143.276 211.592C132.279 233.335 140.996 259.871 162.746 270.865C180.423 279.8 201.27 275.716 214.361 262.198L289.928 300.393C291.183 301.026 292.676 300.975 293.883 300.255L301.274 295.855C301.4 295.778 301.521 295.696 301.637 295.609C301.669 295.584 301.701 295.559 301.733 295.532C301.819 295.463 301.902 295.392 301.981 295.319C302.008 295.294 302.034 295.269 302.061 295.242C302.159 295.144 302.253 295.045 302.339 294.94C302.341 294.938 302.342 294.936 302.342 294.934C303.27 293.806 303.553 292.23 302.985 290.806L296.98 275.757C296.61 274.828 295.912 274.066 295.018 273.614L287.449 269.788L285.446 273.749L278.944 270.462L280.947 266.501L274.864 263.427L273.02 267.069L265.119 263.074L266.962 259.432L264.018 257.943L263.069 259.818L256.444 256.469L257.393 254.595L252.241 251.99L250.238 255.951L246.557 254.091L248.56 250.13L245.371 248.517L243.367 252.476L236.988 249.252L238.992 245.291L230.025 240.758L226.186 238.818C229.315 220.266 220.246 201.062 202.57 192.126C180.818 181.135 154.273 189.849 143.276 211.592ZM169.022 214.595C173.426 216.821 175.191 222.195 172.965 226.598C170.738 231.001 165.362 232.765 160.958 230.54C156.554 228.314 154.789 222.94 157.015 218.537C159.243 214.134 164.618 212.37 169.022 214.595Z" fill="url(#paint50_linear_14_555)"/>
<path d="M204.528 224.916L240.35 243.021L238.347 246.982L244.726 250.206L246.729 246.245L249.919 247.858L247.916 251.819L251.597 253.68L253.6 249.718L258.752 252.323L257.803 254.198L264.428 257.546L265.377 255.672L268.321 257.16L266.477 260.802L274.379 264.797L276.222 261.155L282.306 264.23L280.302 268.191L286.804 271.477L288.808 267.516L296.376 271.342C297.27 271.794 297.967 272.556 298.339 273.485L304.344 288.534C305.092 290.41 304.365 292.55 302.631 293.585L295.24 297.986C294.031 298.705 292.539 298.756 291.285 298.123L200.062 252.015L204.528 224.916Z" fill="url(#paint51_linear_14_555)"/>
<path d="M164.107 268.595C185.856 279.588 212.402 270.874 223.399 249.131C234.395 227.388 225.678 200.851 203.929 189.858C182.179 178.865 155.633 187.579 144.636 209.322C133.64 231.065 142.357 257.602 164.107 268.595ZM162.319 228.268C157.915 226.042 156.15 220.668 158.376 216.265C160.602 211.863 165.978 210.098 170.382 212.324C174.786 214.549 176.551 219.924 174.325 224.326C172.099 228.731 166.723 230.495 162.319 228.268Z" fill="url(#paint52_linear_14_555)"/>
<path d="M215.72 259.928L291.287 298.123C292.542 298.756 294.035 298.705 295.242 297.986L302.633 293.585C303.748 292.921 304.439 291.799 304.597 290.585C297.71 283.126 232.242 254.547 229.794 248.665C228.923 246.573 228.773 243.404 231.384 238.49L227.545 236.55C230.673 217.997 221.605 198.793 203.929 189.858C182.179 178.865 155.633 187.579 144.636 209.322C133.64 231.065 142.357 257.602 164.107 268.595C181.783 277.528 202.63 273.444 215.72 259.928ZM170.382 212.325C174.786 214.551 176.551 219.925 174.325 224.328C172.099 228.731 166.723 230.495 162.319 228.27C157.915 226.044 156.15 220.67 158.376 216.267C160.604 211.864 165.978 210.1 170.382 212.325Z" fill="url(#paint53_linear_14_555)"/>
<path d="M168.014 260.869C185.495 269.704 206.831 262.701 215.67 245.225C224.508 227.75 217.502 206.42 200.021 197.585C182.54 188.749 161.204 195.753 152.365 213.228C143.527 230.703 150.533 252.033 168.014 260.869ZM162.319 228.268C157.914 226.043 156.15 220.668 158.376 216.265C160.602 211.863 165.978 210.098 170.382 212.324C174.786 214.549 176.551 219.924 174.325 224.326C172.099 228.731 166.723 230.495 162.319 228.268Z" fill="url(#paint54_linear_14_555)"/>
<path d="M108.075 285.335C108.075 285.335 149.632 299.242 172.876 281.55C174.318 280.453 176.136 279.974 177.924 280.265L186.804 281.71C190.531 282.317 194.082 279.903 194.885 276.214C195.343 274.11 195.564 271.808 195.097 269.832L178.334 268.821L178.813 266.647C178.813 266.647 171.403 268.46 171.255 274.254C171.255 274.254 153.874 285.636 122.174 267.97C122.174 267.972 109.83 277.628 108.075 285.335Z" fill="url(#paint55_linear_14_555)"/>
<g opacity="0.3">
<path opacity="0.3" d="M429.047 77.0611C428.08 77.022 427.327 76.2048 427.368 75.2381C427.445 73.3581 427.441 71.4479 427.357 69.559C427.315 68.603 428.047 67.793 428.998 67.7324C429.008 67.7324 429.021 67.7307 429.031 67.7307C429.998 67.6879 430.818 68.4374 430.86 69.4041C430.948 71.3927 430.953 73.4026 430.871 75.3823C430.834 76.2867 430.116 77.0024 429.233 77.0593C429.172 77.0629 429.11 77.0629 429.047 77.0611ZM426.317 60.3941C425.977 58.5355 425.553 56.6733 425.058 54.8592C424.804 53.9263 425.354 52.9614 426.289 52.7068C427.227 52.454 428.187 53.0041 428.442 53.937C428.962 55.8455 429.409 57.8056 429.767 59.7621C429.941 60.7146 429.311 61.6278 428.358 61.8023C428.289 61.8148 428.219 61.8237 428.152 61.8272C427.277 61.8824 426.479 61.2753 426.317 60.3941ZM422.022 46.1536C421.278 44.4214 420.449 42.7016 419.559 41.0389C419.101 40.1861 419.424 39.1233 420.277 38.6657C421.13 38.21 422.193 38.5304 422.651 39.3832C423.587 41.1332 424.46 42.9455 425.244 44.7686C425.626 45.6587 425.213 46.6895 424.325 47.0705C424.134 47.1524 423.938 47.1969 423.744 47.2093C423.025 47.2574 422.321 46.8533 422.022 46.1536ZM414.647 33.2323C413.534 31.7084 412.341 30.2165 411.104 28.7941C410.468 28.0641 410.544 26.9568 411.274 26.3212C412.005 25.6857 413.112 25.7622 413.748 26.4922C415.052 27.9894 416.307 29.5596 417.479 31.1636C418.051 31.9452 417.88 33.0418 417.098 33.6133C416.818 33.818 416.498 33.9266 416.175 33.948C415.597 33.9836 415.014 33.7326 414.647 33.2323ZM404.577 22.2747C403.156 21.0391 401.661 19.8464 400.137 18.7319C399.355 18.1604 399.186 17.0638 399.756 16.2822C400.328 15.5007 401.425 15.3298 402.206 15.903C403.811 17.0762 405.383 18.3296 406.878 19.6309C407.608 20.2665 407.686 21.3738 407.05 22.1038C406.73 22.4723 406.29 22.6734 405.839 22.7019C405.394 22.7304 404.938 22.5898 404.577 22.2747ZM392.331 13.8183C390.67 12.9264 388.95 12.095 387.219 11.3473C386.33 10.9627 385.92 9.93195 386.305 9.04359C386.69 8.15523 387.721 7.74576 388.609 8.13031C390.431 8.91719 392.242 9.79309 393.991 10.7313C394.844 11.1888 395.165 12.2517 394.705 13.1044C394.408 13.6581 393.854 13.9874 393.27 14.0248C392.955 14.0426 392.631 13.9785 392.331 13.8183ZM327.227 13.0012C326.771 12.1466 327.095 11.0856 327.948 10.6298C329.699 9.69696 331.513 8.82818 333.342 8.04663C334.233 7.66565 335.264 8.08046 335.643 8.9706C336.024 9.86074 335.609 10.8897 334.719 11.2707C332.982 12.0113 331.259 12.8374 329.597 13.724C329.369 13.845 329.127 13.9109 328.885 13.9269C328.222 13.9696 327.562 13.6278 327.227 13.0012ZM378.524 8.28875C376.708 7.78849 374.847 7.36122 372.993 7.01941C372.04 6.84316 371.412 5.92809 371.588 4.97742C371.764 4.02497 372.678 3.40187 373.631 3.57278C375.582 3.93418 377.541 4.38281 379.456 4.90977C380.389 5.16613 380.938 6.13105 380.681 7.0657C380.478 7.80629 379.828 8.30477 379.101 8.34928C378.913 8.35996 378.719 8.34216 378.524 8.28875ZM341.287 7.01585C341.034 6.0812 341.588 5.11985 342.523 4.86705C344.437 4.34898 346.399 3.90747 348.355 3.5532C349.308 3.37695 350.219 4.01251 350.392 4.96496C350.565 5.91741 349.933 6.82892 348.98 7.00161C347.123 7.33808 345.256 7.75823 343.438 8.24959C343.322 8.28163 343.205 8.29943 343.091 8.30655C342.273 8.35818 341.507 7.833 341.287 7.01585ZM363.831 5.98328C361.948 5.90317 360.039 5.90139 358.151 5.9815C357.184 6.02245 356.367 5.27295 356.326 4.30448C356.285 3.35024 357.017 2.54199 357.966 2.48146C357.979 2.48146 357.991 2.47968 358.004 2.47968C359.989 2.39423 362 2.39601 363.982 2.47968C364.949 2.52241 365.7 3.33956 365.658 4.30626C365.619 5.20886 364.903 5.92453 364.019 5.97972C363.957 5.98506 363.895 5.98506 363.831 5.98328Z" fill="#91B3FA"/>
<path opacity="0.3" d="M318.591 20.6778C318.935 20.6564 319.277 20.5336 319.569 20.3021C320.276 19.7396 321.008 19.1841 321.744 18.6465C322.525 18.0768 322.698 16.9783 322.126 16.1968C321.557 15.4153 320.458 15.2426 319.676 15.814C318.903 16.3784 318.134 16.9623 317.389 17.5534C316.631 18.1551 316.504 19.2589 317.106 20.0155C317.477 20.4855 318.038 20.7116 318.591 20.6778Z" fill="#91B3FA"/>
</g>
<g opacity="0.3">
<path opacity="0.3" d="M293.031 67.6095C293.875 67.5561 294.58 66.8974 294.664 66.0268C294.749 65.1278 294.856 64.2145 294.981 63.3137C295.113 62.3541 294.441 61.4693 293.483 61.3376C292.52 61.2058 291.638 61.877 291.506 62.8348C291.376 63.7837 291.264 64.745 291.173 65.6921C291.081 66.6553 291.788 67.5116 292.751 67.6042C292.846 67.6148 292.938 67.6148 293.031 67.6095Z" fill="#91B3FA"/>
<path opacity="0.3" d="M361.809 142.437C360.841 142.451 360.045 141.676 360.03 140.708C360.016 139.739 360.789 138.945 361.758 138.931C363.601 138.904 365.473 138.799 367.339 138.618C368.297 138.522 369.161 139.23 369.253 140.193C369.348 141.157 368.643 142.015 367.677 142.107C366.869 142.186 366.06 142.251 365.255 142.301C364.11 142.376 362.949 142.421 361.809 142.437ZM374.997 139.237C374.774 138.296 375.356 137.352 376.298 137.128C378.108 136.699 379.917 136.19 381.678 135.613C382.597 135.308 383.589 135.812 383.89 136.733C384.191 137.651 383.691 138.643 382.77 138.944C380.916 139.551 379.011 140.088 377.107 140.539C377.009 140.562 376.909 140.576 376.811 140.583C375.974 140.637 375.196 140.081 374.997 139.237ZM352.269 141.92C350.333 141.682 348.38 141.358 346.465 140.954C345.518 140.754 344.911 139.825 345.11 138.878C345.31 137.931 346.239 137.325 347.187 137.523C349.005 137.906 350.859 138.214 352.697 138.44C353.658 138.559 354.34 139.433 354.223 140.395C354.118 141.244 353.422 141.876 352.595 141.929C352.49 141.936 352.38 141.933 352.269 141.92ZM389.283 134.548C388.857 133.678 389.219 132.629 390.089 132.204C391.758 131.39 393.411 130.494 395.003 129.544C395.835 129.047 396.91 129.318 397.407 130.149C397.904 130.98 397.633 132.056 396.802 132.552C395.124 133.555 393.384 134.497 391.628 135.355C391.416 135.458 391.194 135.515 390.971 135.529C390.282 135.572 389.603 135.205 389.283 134.548ZM337.28 138.353C335.446 137.694 333.613 136.948 331.834 136.134C330.952 135.732 330.566 134.692 330.968 133.813C331.371 132.932 332.411 132.545 333.292 132.948C334.982 133.72 336.722 134.429 338.466 135.054C339.378 135.381 339.851 136.385 339.524 137.295C339.28 137.973 338.66 138.41 337.983 138.452C337.752 138.467 337.513 138.435 337.28 138.353ZM323.437 131.584C321.786 130.539 320.16 129.41 318.606 128.233C317.835 127.648 317.681 126.549 318.267 125.778C318.853 125.006 319.952 124.854 320.723 125.44C322.201 126.56 323.747 127.632 325.314 128.625C326.132 129.143 326.376 130.226 325.857 131.045C325.544 131.538 325.027 131.821 324.486 131.855C324.128 131.876 323.761 131.79 323.437 131.584ZM311.399 121.962C310.015 120.58 308.672 119.126 307.411 117.637C306.784 116.898 306.877 115.793 307.616 115.166C308.355 114.54 309.461 114.632 310.088 115.371C311.286 116.784 312.561 118.166 313.876 119.48C314.561 120.163 314.563 121.274 313.877 121.958C313.564 122.273 313.16 122.444 312.748 122.469C312.264 122.501 311.769 122.332 311.399 121.962ZM301.746 109.943C300.697 108.293 299.707 106.578 298.802 104.848C298.354 103.99 298.687 102.93 299.545 102.482C300.402 102.035 301.463 102.366 301.91 103.224C302.768 104.867 303.709 106.494 304.706 108.061C305.226 108.878 304.984 109.961 304.166 110.48C303.908 110.644 303.623 110.733 303.338 110.751C302.72 110.79 302.102 110.502 301.746 109.943ZM294.968 96.0904C294.311 94.255 293.723 92.3661 293.221 90.4772C292.972 89.5408 293.529 88.5812 294.466 88.3337C295.399 88.0863 296.363 88.6417 296.61 89.5782C297.086 91.3727 297.645 93.1672 298.27 94.9101C298.596 95.8216 298.122 96.8239 297.21 97.1515C297.052 97.2085 296.89 97.2405 296.73 97.2512C295.969 97.2975 295.237 96.8417 294.968 96.0904ZM291.401 81.1022C291.223 79.6762 291.086 78.2271 290.995 76.7957C290.963 76.2777 290.935 75.7596 290.913 75.2433C290.872 74.2766 291.611 73.4417 292.593 73.4203C293.56 73.3794 294.377 74.1306 294.418 75.0991C294.439 75.5905 294.464 76.0818 294.495 76.575C294.582 77.9369 294.71 79.313 294.879 80.6696C295 81.6292 294.318 82.5069 293.357 82.6261C293.321 82.6297 293.284 82.6351 293.248 82.6368C292.333 82.6938 291.517 82.028 291.401 81.1022Z" fill="#91B3FA"/>
<path opacity="0.3" d="M403.7 127.454C404.048 127.432 404.393 127.306 404.685 127.073C405.426 126.478 406.167 125.858 406.89 125.228C407.62 124.593 407.695 123.485 407.059 122.755C406.422 122.026 405.316 121.949 404.586 122.586C403.898 123.185 403.195 123.774 402.491 124.338C401.736 124.943 401.615 126.047 402.221 126.802C402.591 127.263 403.15 127.487 403.7 127.454Z" fill="#91B3FA"/>
</g>
<path d="M407.013 97.5879C407.216 97.303 407.217 96.922 407.014 96.6372L401.237 88.5084C403.013 84.2037 404.113 79.5839 404.429 74.8038L413.192 70.0576C413.5 69.8902 413.668 69.5484 413.611 69.203L411.654 57.4051C411.597 57.0597 411.326 56.7891 410.982 56.7321L401.155 55.0693C399.314 50.6453 396.78 46.629 393.71 43.1272L396.552 33.5706C396.652 33.2359 396.527 32.8745 396.244 32.6716L386.515 25.7125C386.23 25.5095 385.849 25.5077 385.564 25.7107L377.433 31.4859C373.126 29.711 368.505 28.6108 363.724 28.2956L358.976 19.5349C358.808 19.2269 358.466 19.0595 358.121 19.1165L346.319 21.073C345.974 21.13 345.703 21.4006 345.646 21.7442L343.983 31.5696C339.557 33.4104 335.54 35.9437 332.037 39.013L322.477 36.1716C322.142 36.0719 321.781 36.1965 321.578 36.4796L314.616 46.2053C314.413 46.4902 314.411 46.8711 314.614 47.156L320.392 55.2848C318.616 59.5895 317.515 64.2075 317.2 68.9894L308.437 73.7356C308.129 73.9012 307.961 74.2448 308.018 74.5902L309.975 86.3881C310.032 86.7335 310.303 87.0041 310.647 87.0611L320.474 88.7238C322.315 93.1478 324.849 97.1642 327.919 100.666L325.077 110.223C324.977 110.557 325.102 110.919 325.385 111.122L335.114 118.081C335.399 118.284 335.78 118.285 336.065 118.083L344.196 112.307C348.502 114.082 353.122 115.182 357.905 115.498L362.653 124.258C362.819 124.565 363.163 124.734 363.508 124.677L375.31 122.72C375.655 122.663 375.926 122.393 375.983 122.049L377.646 112.225C382.072 110.385 386.089 107.851 389.592 104.782L399.152 107.623C399.487 107.723 399.848 107.598 400.051 107.315L407.013 97.5879Z" fill="#91B3FA"/>
<path d="M359.816 83.8742C353.208 83.3241 348.28 77.5044 348.829 70.8977C349.094 67.6968 350.592 64.7931 353.044 62.7173C355.494 60.6433 358.607 59.6463 361.809 59.9134C368.418 60.4635 373.346 66.2832 372.797 72.8899C372.297 78.9001 367.433 83.52 361.583 83.892C361.002 83.9294 360.411 83.9241 359.816 83.8742ZM354.855 64.859C352.974 66.4506 351.827 68.6759 351.623 71.131C351.202 76.1959 354.981 80.659 360.048 81.0792C365.116 81.5029 369.579 77.7216 370.001 72.6567C370.421 67.5917 366.642 63.1286 361.576 62.7084C361.116 62.671 360.661 62.6657 360.208 62.6942C358.246 62.8206 356.383 63.5665 354.855 64.859Z" fill="#BDD0FB"/>
<path d="M362.436 101.238C363.441 101.173 364.449 101.059 365.455 100.892C365.772 100.841 366.087 100.782 366.402 100.719C367.955 100.41 369.483 99.9771 370.958 99.4287C370.977 99.4216 370.999 99.4145 371.018 99.4056C371.075 99.3842 371.132 99.3629 371.189 99.3397C371.299 99.297 371.41 99.2543 371.52 99.2115C371.811 99.0976 371.982 98.811 371.962 98.5155C371.957 98.4442 371.942 98.3712 371.914 98.3018C371.771 97.9422 371.364 97.766 371.004 97.9084C369.15 98.6419 367.205 99.1795 365.223 99.5071C355.377 101.141 345.858 97.4313 339.638 90.5077C336.177 86.657 333.738 81.811 332.829 76.3367C332.669 75.3771 332.56 74.4157 332.5 73.4579C332.092 67.0098 333.898 60.6719 337.709 55.3471C342.086 49.2301 348.585 45.1835 356.007 43.9533C371.335 41.4128 385.862 51.8079 388.403 67.1237C388.56 68.0672 388.668 69.0161 388.727 69.9668C388.987 74.0793 388.344 78.2042 386.83 82.0407C386.791 82.1404 386.777 82.2419 386.782 82.3416C386.798 82.6033 386.964 82.8472 387.224 82.9486C387.585 83.0893 387.992 82.9148 388.134 82.5534C389.724 78.5246 390.399 74.195 390.125 69.8778C390.063 68.8808 389.949 67.8857 389.785 66.894C387.117 50.8127 371.857 39.9032 355.777 42.5682C347.986 43.8607 341.164 48.1085 336.567 54.53C332.566 60.1201 330.669 66.7748 331.098 73.5434C331.162 74.5493 331.278 75.5587 331.444 76.5663C332.737 84.3569 336.986 91.1753 343.408 95.7703C349.005 99.7706 355.665 101.667 362.436 101.238Z" fill="#BDD0FB"/>
<g opacity="0.3">
<path opacity="0.3" d="M491.872 119.368C492.341 119.337 492.752 119.006 492.859 118.526C493.062 117.63 493.24 116.715 493.388 115.807C493.484 115.218 493.085 114.661 492.494 114.564C491.903 114.465 491.347 114.869 491.251 115.458C491.11 116.323 490.939 117.196 490.747 118.05C490.615 118.632 490.982 119.213 491.564 119.344C491.668 119.366 491.771 119.373 491.872 119.368Z" fill="#91B3FA"/>
<path opacity="0.3" d="M492.841 111.111C492.243 111.088 491.778 110.585 491.801 109.987C491.858 108.479 491.839 106.952 491.744 105.446C491.725 105.129 491.7 104.81 491.673 104.49C491.623 103.895 492.065 103.37 492.661 103.32C493.226 103.295 493.782 103.712 493.831 104.308C493.86 104.643 493.885 104.976 493.906 105.307C494.006 106.886 494.027 108.488 493.965 110.069C493.944 110.628 493.5 111.073 492.954 111.107C492.916 111.112 492.88 111.112 492.841 111.111ZM490.877 99.051C490.501 97.26 490.013 95.4762 489.424 93.7511C489.23 93.185 489.532 92.5708 490.099 92.3767C490.662 92.1845 491.281 92.4853 491.474 93.0514C492.092 94.8602 492.604 96.7313 492.998 98.6077C493.121 99.1934 492.745 99.7667 492.159 99.8895C492.108 99.9002 492.056 99.9073 492.004 99.9091C491.475 99.9429 490.989 99.5833 490.877 99.051ZM487.322 88.6684C486.521 87.027 485.609 85.4176 484.608 83.8865C484.283 83.3863 484.423 82.7151 484.924 82.3893C485.426 82.0618 486.095 82.2024 486.423 82.7044C487.472 84.3103 488.428 85.998 489.269 87.7195C489.531 88.2571 489.308 88.9052 488.77 89.1669C488.639 89.231 488.501 89.2648 488.364 89.2737C487.94 89.3004 487.522 89.0743 487.322 88.6684ZM481.326 79.475C480.146 78.0775 478.865 76.7405 477.526 75.5032C477.086 75.0973 477.059 74.4119 477.465 73.9739C477.87 73.536 478.555 73.5075 478.995 73.9134C480.4 75.2112 481.741 76.6123 482.981 78.0793C483.367 78.535 483.308 79.2186 482.852 79.605C482.667 79.7599 482.446 79.8435 482.224 79.8578C481.893 79.8773 481.556 79.7474 481.326 79.475ZM473.266 72.0245C471.781 70.9563 470.217 69.9718 468.614 69.0942C468.091 68.8075 467.899 68.1488 468.185 67.6254C468.472 67.1002 469.131 66.908 469.655 67.1964C471.334 68.115 472.974 69.1494 474.531 70.2674C475.015 70.6163 475.127 71.2928 474.778 71.7788C474.58 72.053 474.279 72.2079 473.966 72.2275C473.726 72.2417 473.478 72.1776 473.266 72.0245ZM463.641 66.7567C461.942 66.0819 460.186 65.5087 458.419 65.0511C457.84 64.9016 457.493 64.3105 457.643 63.732C457.792 63.1534 458.382 62.8062 458.962 62.9557C460.814 63.4364 462.657 64.0382 464.438 64.7449C464.994 64.9657 465.266 65.5941 465.046 66.1496C464.885 66.5519 464.511 66.8047 464.107 66.8314C463.954 66.8403 463.795 66.8172 463.641 66.7567ZM453.023 64.0026C451.217 63.7658 449.371 63.6412 447.538 63.6305C446.94 63.6269 446.459 63.1391 446.462 62.5409C446.466 61.9428 446.952 61.471 447.552 61.4639C449.474 61.4763 451.41 61.6081 453.304 61.8555C453.897 61.9339 454.316 62.4769 454.238 63.0697C454.17 63.5913 453.741 63.9776 453.233 64.0097C453.164 64.0132 453.094 64.0115 453.023 64.0026ZM435.325 64.1129C435.182 63.5326 435.539 62.9468 436.121 62.8044C437.729 62.4128 439.387 62.1012 441.043 61.8805C441.294 61.8448 441.545 61.8146 441.796 61.7843C442.386 61.6989 442.929 62.1404 442.997 62.735C443.066 63.3296 442.641 63.8655 442.046 63.9349C441.811 63.9616 441.574 63.9919 441.333 64.0239C439.748 64.234 438.167 64.5313 436.634 64.9052C436.571 64.9212 436.507 64.9301 436.445 64.9336C435.93 64.9693 435.451 64.6292 435.325 64.1129Z" fill="#91B3FA"/>
</g>
<g opacity="0.3">
<path opacity="0.3" d="M449.537 154.927C447.653 155.021 445.745 155.002 443.868 154.87C443.272 154.827 442.823 154.311 442.864 153.713C442.907 153.117 443.428 152.673 444.021 152.709C445.811 152.835 447.629 152.853 449.428 152.762C450.025 152.732 450.534 153.191 450.564 153.789C450.595 154.382 450.142 154.888 449.551 154.925C449.547 154.927 449.542 154.927 449.537 154.927ZM453.925 153.417C453.823 152.828 454.219 152.269 454.808 152.168C456.582 151.863 458.354 151.447 460.076 150.932C460.646 150.763 461.253 151.087 461.424 151.66C461.595 152.234 461.269 152.835 460.697 153.008C458.892 153.547 457.034 153.984 455.177 154.302C455.138 154.309 455.098 154.313 455.059 154.316C454.514 154.35 454.019 153.969 453.925 153.417ZM438.244 154.124C436.39 153.761 434.544 153.282 432.756 152.7C432.188 152.515 431.876 151.902 432.061 151.334C432.246 150.765 432.855 150.457 433.425 150.64C435.131 151.196 436.893 151.653 438.661 152C439.249 152.116 439.63 152.684 439.516 153.27C439.42 153.763 439.001 154.112 438.522 154.142C438.431 154.149 438.339 154.144 438.244 154.124ZM464.596 150.494C464.355 149.948 464.605 149.309 465.153 149.068C466.8 148.345 468.419 147.516 469.965 146.599C470.48 146.294 471.144 146.465 471.448 146.976C471.753 147.491 471.584 148.155 471.069 148.459C469.449 149.421 467.75 150.293 466.022 151.05C465.903 151.101 465.778 151.132 465.655 151.139C465.215 151.169 464.784 150.923 464.596 150.494ZM427.484 150.619C425.776 149.823 424.101 148.913 422.501 147.916C421.994 147.599 421.839 146.932 422.156 146.424C422.473 145.917 423.141 145.76 423.648 146.079C425.174 147.032 426.772 147.899 428.401 148.657C428.943 148.91 429.178 149.554 428.925 150.095C428.752 150.467 428.394 150.694 428.011 150.718C427.835 150.729 427.655 150.699 427.484 150.619ZM417.878 144.633C416.409 143.45 414.997 142.164 413.684 140.817C413.268 140.389 413.277 139.704 413.704 139.287C414.131 138.871 414.817 138.88 415.235 139.307C416.487 140.592 417.834 141.817 419.237 142.948C419.702 143.323 419.775 144.005 419.401 144.47C419.203 144.715 418.918 144.852 418.626 144.87C418.366 144.888 418.099 144.811 417.878 144.633ZM409.982 136.522C408.837 135.02 407.775 133.434 406.826 131.81C406.524 131.294 406.698 130.632 407.215 130.329C407.731 130.026 408.393 130.202 408.696 130.717C409.601 132.266 410.614 133.779 411.706 135.21C412.067 135.686 411.977 136.366 411.499 136.727C411.323 136.863 411.118 136.934 410.913 136.946C410.564 136.968 410.21 136.822 409.982 136.522Z" fill="#91B3FA"/>
<path opacity="0.3" d="M475.213 145.47C475.422 145.458 475.628 145.383 475.806 145.246C476.54 144.68 477.26 144.089 477.947 143.489C478.398 143.095 478.444 142.412 478.052 141.961C477.658 141.513 476.975 141.465 476.524 141.856C475.869 142.428 475.183 142.992 474.483 143.532C474.01 143.896 473.924 144.578 474.289 145.05C474.515 145.347 474.866 145.492 475.213 145.47Z" fill="#91B3FA"/>
</g>
<path d="M478.086 125.061C478.221 124.871 478.223 124.616 478.088 124.424L474.223 118.985C475.411 116.104 476.148 113.014 476.358 109.815L482.223 106.639C482.429 106.527 482.541 106.297 482.502 106.067L481.193 98.1716C481.156 97.9402 480.974 97.7604 480.745 97.7212L474.168 96.6086C472.935 93.6479 471.24 90.9615 469.185 88.6169L471.087 82.2221C471.153 81.9978 471.071 81.7556 470.88 81.6203L464.37 76.9631C464.179 76.8278 463.924 76.826 463.732 76.9613L458.291 80.8246C455.41 79.6371 452.318 78.9001 449.118 78.69L445.941 72.8275C445.829 72.621 445.599 72.5088 445.37 72.548L437.471 73.8565C437.24 73.8957 437.06 74.0755 437.021 74.3052L435.908 80.8797C432.946 82.1117 430.259 83.8065 427.914 85.861L421.517 83.9596C421.292 83.8938 421.05 83.9757 420.915 84.1662L416.256 90.6749C416.121 90.8654 416.119 91.1199 416.254 91.3104L420.119 96.7492C418.931 99.6297 418.194 102.72 417.983 105.919L412.119 109.095C411.912 109.206 411.8 109.436 411.839 109.667L413.148 117.562C413.188 117.794 413.367 117.974 413.597 118.013L420.174 119.126C421.406 122.086 423.102 124.773 425.157 127.117L423.255 133.512C423.189 133.736 423.271 133.978 423.461 134.114L429.972 138.771C430.163 138.906 430.417 138.908 430.61 138.773L436.05 134.91C438.932 136.097 442.023 136.834 445.223 137.044L448.401 142.907C448.513 143.111 448.742 143.225 448.972 143.186L456.87 141.878C457.102 141.838 457.282 141.659 457.321 141.429L458.434 134.854C461.395 133.622 464.083 131.928 466.428 129.873L472.825 131.775C473.049 131.84 473.292 131.758 473.427 131.568L478.086 125.061Z" fill="#91B3FA"/>
<path d="M446.493 116.03C444.311 115.85 442.333 114.83 440.919 113.16C439.505 111.492 438.826 109.372 439.008 107.191C439.382 102.692 443.343 99.3414 447.85 99.7081C452.352 100.084 455.709 104.048 455.333 108.547C455.152 110.726 454.133 112.706 452.462 114.12C451.105 115.268 449.449 115.932 447.706 116.042C447.307 116.067 446.901 116.064 446.493 116.03ZM441.166 107.369C441.033 108.973 441.531 110.532 442.571 111.761C443.612 112.987 445.068 113.739 446.671 113.872C448.276 114.004 449.834 113.505 451.064 112.466C452.293 111.428 453.043 109.97 453.177 108.367C453.453 105.058 450.983 102.142 447.672 101.866C447.373 101.841 447.077 101.839 446.787 101.857C443.856 102.044 441.418 104.358 441.166 107.369Z" fill="#BDD0FB"/>
<path d="M448.319 128.113C449.002 128.07 449.69 127.99 450.379 127.878C451.749 127.651 453.097 127.285 454.39 126.788C454.448 126.765 454.505 126.742 454.564 126.72C455.011 126.544 455.276 126.103 455.248 125.647C455.241 125.537 455.216 125.424 455.173 125.316C454.954 124.76 454.324 124.49 453.768 124.709C452.566 125.184 451.307 125.533 450.026 125.743C449.957 125.755 449.886 125.766 449.816 125.777C446.782 126.25 443.744 125.95 440.926 124.942C439.396 124.395 437.933 123.639 436.568 122.681C436.558 122.674 436.547 122.665 436.535 122.658C436.501 122.633 436.467 122.61 436.433 122.587C432.472 119.752 429.851 115.547 429.055 110.744C428.952 110.123 428.88 109.501 428.841 108.88C428.576 104.705 429.746 100.602 432.214 97.1552C435.049 93.1959 439.256 90.5771 444.061 89.7813C448.862 88.9873 453.693 90.1071 457.654 92.9395C461.615 95.7737 464.236 99.9788 465.032 104.782C465.133 105.393 465.203 106.007 465.242 106.621C465.411 109.284 464.995 111.953 464.015 114.436C463.955 114.59 463.931 114.748 463.942 114.901C463.967 115.307 464.222 115.681 464.626 115.839C465.183 116.057 465.81 115.786 466.031 115.229C467.128 112.45 467.593 109.462 467.406 106.484C467.361 105.797 467.285 105.11 467.171 104.426C466.279 99.0512 463.347 94.3459 458.915 91.177C454.484 88.0081 449.084 86.7495 443.708 87.6449C438.332 88.5351 433.627 91.4654 430.455 95.8966C427.694 99.7527 426.385 104.344 426.681 109.014C426.726 109.706 426.804 110.402 426.92 111.098C428.644 121.499 438.007 128.768 448.319 128.113Z" fill="#BDD0FB"/>
<defs>
<linearGradient id="paint0_linear_14_555" x1="553.116" y1="636.047" x2="117.594" y2="94.9803" gradientUnits="userSpaceOnUse">
<stop stop-color="#DAE3FE"/>
<stop offset="1" stop-color="#E9EFFD"/>
</linearGradient>
<linearGradient id="paint1_linear_14_555" x1="105.224" y1="249.423" x2="142.707" y2="249.423" gradientUnits="userSpaceOnUse">
<stop stop-color="#DAE3FE"/>
<stop offset="1" stop-color="#E9EFFD"/>
</linearGradient>
<linearGradient id="paint2_linear_14_555" x1="63.5401" y1="249.419" x2="100.945" y2="249.419" gradientUnits="userSpaceOnUse">
<stop stop-color="#DAE3FE"/>
<stop offset="1" stop-color="#E9EFFD"/>
</linearGradient>
<linearGradient id="paint3_linear_14_555" x1="21.8986" y1="249.415" x2="59.2259" y2="249.415" gradientUnits="userSpaceOnUse">
<stop stop-color="#DAE3FE"/>
<stop offset="1" stop-color="#E9EFFD"/>
</linearGradient>
<linearGradient id="paint4_linear_14_555" x1="104.759" y1="276.685" x2="142.176" y2="276.685" gradientUnits="userSpaceOnUse">
<stop stop-color="#DAE3FE"/>
<stop offset="1" stop-color="#E9EFFD"/>
</linearGradient>
<linearGradient id="paint5_linear_14_555" x1="63.1482" y1="276.668" x2="100.488" y2="276.668" gradientUnits="userSpaceOnUse">
<stop stop-color="#DAE3FE"/>
<stop offset="1" stop-color="#E9EFFD"/>
</linearGradient>
<linearGradient id="paint6_linear_14_555" x1="21.5792" y1="276.65" x2="58.8411" y2="276.65" gradientUnits="userSpaceOnUse">
<stop stop-color="#DAE3FE"/>
<stop offset="1" stop-color="#E9EFFD"/>
</linearGradient>
<linearGradient id="paint7_linear_14_555" x1="104.296" y1="303.711" x2="141.647" y2="303.711" gradientUnits="userSpaceOnUse">
<stop stop-color="#DAE3FE"/>
<stop offset="1" stop-color="#E9EFFD"/>
</linearGradient>
<linearGradient id="paint8_linear_14_555" x1="62.7572" y1="303.68" x2="100.031" y2="303.68" gradientUnits="userSpaceOnUse">
<stop stop-color="#DAE3FE"/>
<stop offset="1" stop-color="#E9EFFD"/>
</linearGradient>
<linearGradient id="paint9_linear_14_555" x1="21.2606" y1="303.649" x2="58.4574" y2="303.649" gradientUnits="userSpaceOnUse">
<stop stop-color="#DAE3FE"/>
<stop offset="1" stop-color="#E9EFFD"/>
</linearGradient>
<linearGradient id="paint10_linear_14_555" x1="103.834" y1="330.643" x2="141.12" y2="330.643" gradientUnits="userSpaceOnUse">
<stop stop-color="#DAE3FE"/>
<stop offset="1" stop-color="#E9EFFD"/>
</linearGradient>
<linearGradient id="paint11_linear_14_555" x1="62.3678" y1="330.598" x2="99.5769" y2="330.598" gradientUnits="userSpaceOnUse">
<stop stop-color="#DAE3FE"/>
<stop offset="1" stop-color="#E9EFFD"/>
</linearGradient>
<linearGradient id="paint12_linear_14_555" x1="20.943" y1="330.554" x2="58.075" y2="330.554" gradientUnits="userSpaceOnUse">
<stop stop-color="#DAE3FE"/>
<stop offset="1" stop-color="#E9EFFD"/>
</linearGradient>
<linearGradient id="paint13_linear_14_555" x1="103.374" y1="357.482" x2="140.595" y2="357.482" gradientUnits="userSpaceOnUse">
<stop stop-color="#DAE3FE"/>
<stop offset="1" stop-color="#E9EFFD"/>
</linearGradient>
<linearGradient id="paint14_linear_14_555" x1="61.9797" y1="357.424" x2="99.1238" y2="357.424" gradientUnits="userSpaceOnUse">
<stop stop-color="#DAE3FE"/>
<stop offset="1" stop-color="#E9EFFD"/>
</linearGradient>
<linearGradient id="paint15_linear_14_555" x1="20.6267" y1="357.366" x2="57.6941" y2="357.366" gradientUnits="userSpaceOnUse">
<stop stop-color="#DAE3FE"/>
<stop offset="1" stop-color="#E9EFFD"/>
</linearGradient>
<linearGradient id="paint16_linear_14_555" x1="102.916" y1="384.228" x2="140.072" y2="384.228" gradientUnits="userSpaceOnUse">
<stop stop-color="#DAE3FE"/>
<stop offset="1" stop-color="#E9EFFD"/>
</linearGradient>
<linearGradient id="paint17_linear_14_555" x1="61.5933" y1="384.157" x2="98.6728" y2="384.157" gradientUnits="userSpaceOnUse">
<stop stop-color="#DAE3FE"/>
<stop offset="1" stop-color="#E9EFFD"/>
</linearGradient>
<linearGradient id="paint18_linear_14_555" x1="20.3115" y1="384.086" x2="57.3145" y2="384.086" gradientUnits="userSpaceOnUse">
<stop stop-color="#DAE3FE"/>
<stop offset="1" stop-color="#E9EFFD"/>
</linearGradient>
<linearGradient id="paint19_linear_14_555" x1="102.459" y1="410.882" x2="139.551" y2="410.882" gradientUnits="userSpaceOnUse">
<stop stop-color="#DAE3FE"/>
<stop offset="1" stop-color="#E9EFFD"/>
</linearGradient>
<linearGradient id="paint20_linear_14_555" x1="61.2076" y1="410.798" x2="98.2225" y2="410.798" gradientUnits="userSpaceOnUse">
<stop stop-color="#DAE3FE"/>
<stop offset="1" stop-color="#E9EFFD"/>
</linearGradient>
<linearGradient id="paint21_linear_14_555" x1="19.9971" y1="410.714" x2="56.936" y2="410.714" gradientUnits="userSpaceOnUse">
<stop stop-color="#DAE3FE"/>
<stop offset="1" stop-color="#E9EFFD"/>
</linearGradient>
<linearGradient id="paint22_linear_14_555" x1="102.004" y1="437.444" x2="139.031" y2="437.444" gradientUnits="userSpaceOnUse">
<stop stop-color="#DAE3FE"/>
<stop offset="1" stop-color="#E9EFFD"/>
</linearGradient>
<linearGradient id="paint23_linear_14_555" x1="60.8239" y1="437.347" x2="97.7747" y2="437.347" gradientUnits="userSpaceOnUse">
<stop stop-color="#DAE3FE"/>
<stop offset="1" stop-color="#E9EFFD"/>
</linearGradient>
<linearGradient id="paint24_linear_14_555" x1="19.684" y1="437.25" x2="56.5588" y2="437.25" gradientUnits="userSpaceOnUse">
<stop stop-color="#DAE3FE"/>
<stop offset="1" stop-color="#E9EFFD"/>
</linearGradient>
<linearGradient id="paint25_linear_14_555" x1="101.55" y1="463.915" x2="138.513" y2="463.915" gradientUnits="userSpaceOnUse">
<stop stop-color="#DAE3FE"/>
<stop offset="1" stop-color="#E9EFFD"/>
</linearGradient>
<linearGradient id="paint26_linear_14_555" x1="60.4408" y1="463.805" x2="97.3277" y2="463.805" gradientUnits="userSpaceOnUse">
<stop stop-color="#DAE3FE"/>
<stop offset="1" stop-color="#E9EFFD"/>
</linearGradient>
<linearGradient id="paint27_linear_14_555" x1="19.372" y1="463.695" x2="56.1832" y2="463.695" gradientUnits="userSpaceOnUse">
<stop stop-color="#DAE3FE"/>
<stop offset="1" stop-color="#E9EFFD"/>
</linearGradient>
<linearGradient id="paint28_linear_14_555" x1="404.836" y1="-222" x2="297.321" y2="405.376" gradientUnits="userSpaceOnUse">
<stop stop-color="#4042E2"/>
<stop offset="1" stop-color="#4F52FF"/>
</linearGradient>
<linearGradient id="paint29_linear_14_555" x1="221.533" y1="296.433" x2="411.769" y2="296.433" gradientUnits="userSpaceOnUse">
<stop stop-color="#4042E2"/>
<stop offset="1" stop-color="#4F52FF"/>
</linearGradient>
<linearGradient id="paint30_linear_14_555" x1="331.465" y1="86.7768" x2="389.31" y2="-46.7551" gradientUnits="userSpaceOnUse">
<stop stop-color="#09005D"/>
<stop offset="1" stop-color="#1A0F91"/>
</linearGradient>
<linearGradient id="paint31_linear_14_555" x1="336.728" y1="173.273" x2="206.56" y2="1075.76" gradientUnits="userSpaceOnUse">
<stop stop-color="#FEBBBA"/>
<stop offset="1" stop-color="#FF928E"/>
</linearGradient>
<linearGradient id="paint32_linear_14_555" x1="333.311" y1="172.78" x2="203.143" y2="1075.27" gradientUnits="userSpaceOnUse">
<stop stop-color="#FEBBBA"/>
<stop offset="1" stop-color="#FF928E"/>
</linearGradient>
<linearGradient id="paint33_linear_14_555" x1="340.748" y1="275.91" x2="531.591" y2="-103.654" gradientUnits="userSpaceOnUse">
<stop stop-color="#FE7062"/>
<stop offset="1" stop-color="#FF928E"/>
</linearGradient>
<linearGradient id="paint34_linear_14_555" x1="83.6206" y1="483.979" x2="104.742" y2="483.979" gradientUnits="userSpaceOnUse">
<stop stop-color="#09005D"/>
<stop offset="1" stop-color="#1A0F91"/>
</linearGradient>
<linearGradient id="paint35_linear_14_555" x1="89.494" y1="459.941" x2="85.4621" y2="495.141" gradientUnits="userSpaceOnUse">
<stop stop-color="#FEBBBA"/>
<stop offset="1" stop-color="#FF928E"/>
</linearGradient>
<linearGradient id="paint36_linear_14_555" x1="115.782" y1="484.516" x2="146.186" y2="484.516" gradientUnits="userSpaceOnUse">
<stop stop-color="#09005D"/>
<stop offset="1" stop-color="#1A0F91"/>
</linearGradient>
<linearGradient id="paint37_linear_14_555" x1="121.808" y1="463.659" x2="119.997" y2="499.042" gradientUnits="userSpaceOnUse">
<stop stop-color="#FEBBBA"/>
<stop offset="1" stop-color="#FF928E"/>
</linearGradient>
<linearGradient id="paint38_linear_14_555" x1="116.236" y1="493.148" x2="74.502" y2="294.081" gradientUnits="userSpaceOnUse">
<stop stop-color="#09005D"/>
<stop offset="1" stop-color="#1A0F91"/>
</linearGradient>
<linearGradient id="paint39_linear_14_555" x1="158.886" y1="221.157" x2="66.6469" y2="322.951" gradientUnits="userSpaceOnUse">
<stop stop-color="#4042E2"/>
<stop offset="1" stop-color="#4F52FF"/>
</linearGradient>
<linearGradient id="paint40_linear_14_555" x1="140.947" y1="226.808" x2="6.51026" y2="473.64" gradientUnits="userSpaceOnUse">
<stop stop-color="#4042E2"/>
<stop offset="1" stop-color="#4F52FF"/>
</linearGradient>
<linearGradient id="paint41_linear_14_555" x1="105.589" y1="254.786" x2="114.954" y2="229.204" gradientUnits="userSpaceOnUse">
<stop stop-color="#FEBBBA"/>
<stop offset="1" stop-color="#FF928E"/>
</linearGradient>
<linearGradient id="paint42_linear_14_555" x1="113.698" y1="172.336" x2="109.347" y2="205.569" gradientUnits="userSpaceOnUse">
<stop stop-color="#4042E2"/>
<stop offset="1" stop-color="#4F52FF"/>
</linearGradient>
<linearGradient id="paint43_linear_14_555" x1="121.313" y1="173.333" x2="116.962" y2="206.566" gradientUnits="userSpaceOnUse">
<stop stop-color="#4042E2"/>
<stop offset="1" stop-color="#4F52FF"/>
</linearGradient>
<linearGradient id="paint44_linear_14_555" x1="128.62" y1="216.416" x2="72.8047" y2="260.885" gradientUnits="userSpaceOnUse">
<stop stop-color="#FEBBBA"/>
<stop offset="1" stop-color="#FF928E"/>
</linearGradient>
<linearGradient id="paint45_linear_14_555" x1="107.067" y1="201.792" x2="132.646" y2="234.736" gradientUnits="userSpaceOnUse">
<stop stop-color="#09005D"/>
<stop offset="1" stop-color="#1A0F91"/>
</linearGradient>
<linearGradient id="paint46_linear_14_555" x1="123.001" y1="213.98" x2="95.532" y2="235.005" gradientUnits="userSpaceOnUse">
<stop stop-color="#FEBBBA"/>
<stop offset="1" stop-color="#FF928E"/>
</linearGradient>
<linearGradient id="paint47_linear_14_555" x1="188.029" y1="227.865" x2="129.872" y2="278.118" gradientUnits="userSpaceOnUse">
<stop stop-color="#FEBBBA"/>
<stop offset="1" stop-color="#FF928E"/>
</linearGradient>
<linearGradient id="paint48_linear_14_555" x1="189.243" y1="232.548" x2="132.631" y2="281.465" gradientUnits="userSpaceOnUse">
<stop stop-color="#FEBBBA"/>
<stop offset="1" stop-color="#FF928E"/>
</linearGradient>
<linearGradient id="paint49_linear_14_555" x1="190.183" y1="230.357" x2="132.026" y2="280.61" gradientUnits="userSpaceOnUse">
<stop stop-color="#FEBBBA"/>
<stop offset="1" stop-color="#FF928E"/>
</linearGradient>
<linearGradient id="paint50_linear_14_555" x1="116.752" y1="127.642" x2="263.808" y2="321.82" gradientUnits="userSpaceOnUse">
<stop stop-color="#E1473D"/>
<stop offset="1" stop-color="#E9605A"/>
</linearGradient>
<linearGradient id="paint51_linear_14_555" x1="274.102" y1="161.999" x2="246.787" y2="296.004" gradientUnits="userSpaceOnUse">
<stop stop-color="#FE7062"/>
<stop offset="1" stop-color="#FF928E"/>
</linearGradient>
<linearGradient id="paint52_linear_14_555" x1="132.771" y1="225.396" x2="363.467" y2="242.65" gradientUnits="userSpaceOnUse">
<stop stop-color="#FF9085"/>
<stop offset="1" stop-color="#FB6FBB"/>
</linearGradient>
<linearGradient id="paint53_linear_14_555" x1="237.685" y1="216.641" x2="293.456" y2="74.796" gradientUnits="userSpaceOnUse">
<stop stop-color="#FE7062"/>
<stop offset="1" stop-color="#FF928E"/>
</linearGradient>
<linearGradient id="paint54_linear_14_555" x1="268.423" y1="65.7432" x2="258.929" y2="84.1424" gradientUnits="userSpaceOnUse">
<stop stop-color="#FE7062"/>
<stop offset="1" stop-color="#FF928E"/>
</linearGradient>
<linearGradient id="paint55_linear_14_555" x1="153.328" y1="271.573" x2="125.679" y2="409.54" gradientUnits="userSpaceOnUse">
<stop stop-color="#FEBBBA"/>
<stop offset="1" stop-color="#FF928E"/>
</linearGradient>
</defs>
</svg>
